<?xml version="1.0" standalone="no"?>
<!DOCTYPE svg PUBLIC "-//W3C//DTD SVG 20010904//EN"
 "http://www.w3.org/TR/2001/REC-SVG-20010904/DTD/svg10.dtd">
<svg version="1.0" xmlns="http://www.w3.org/2000/svg"
 width="300.000000pt" height="238.000000pt" viewBox="0 0 300.000000 238.000000"
 preserveAspectRatio="xMidYMid meet">

<g transform="translate(0.000000,238.000000) scale(0.100000,-0.100000)"
fill="#000000" stroke="none">
<path d="M1275 2170 l-200 -158 -287 -1 -288 -1 -2 -222 -3 -223 -192 -150
c-106 -82 -197 -154 -202 -160 -6 -6 63 -66 195 -168 l204 -158 0 -224 0 -224
288 0 287 0 55 -42 c30 -24 121 -94 202 -156 l147 -114 203 156 203 156 288 0
287 0 0 223 0 224 178 138 c97 76 189 148 205 160 l27 23 -202 158 -203 158
-3 223 -2 222 -285 0 -285 0 -205 160 c-113 88 -206 160 -208 159 -1 0 -92
-72 -202 -159z m404 -95 l180 -135 271 0 270 0 0 -203 0 -202 191 -143 190
-143 -138 -104 c-76 -58 -162 -123 -190 -145 l-53 -41 0 -200 0 -199 -267 0
-266 0 -194 -145 -193 -145 -193 145 -194 145 -266 0 -267 0 0 200 0 199 -190
143 c-104 79 -189 145 -189 148 0 3 86 68 190 145 l189 139 0 203 0 203 269 0
270 0 186 141 c106 80 193 138 201 135 7 -3 94 -66 193 -141z"/>
<path d="M1292 2025 l-183 -136 -252 1 -252 1 -3 -189 -2 -190 -175 -128 c-96
-71 -175 -132 -175 -135 0 -4 79 -65 175 -135 l174 -129 3 -190 3 -190 258 -3
257 -2 175 -130 c96 -72 179 -130 184 -130 5 0 88 58 185 130 l176 130 257 2
258 3 3 190 3 190 174 129 c96 70 175 131 175 135 0 4 -79 64 -175 135 l-175
128 -2 189 -3 190 -252 -1 -252 -1 -183 135 c-101 75 -185 136 -188 136 -3 0
-87 -61 -188 -135z m372 -25 l164 -120 253 -2 254 -3 5 -187 5 -186 160 -117
c88 -64 165 -122 172 -128 9 -9 -28 -41 -160 -137 l-172 -126 -3 -187 -2 -187
-253 0 -253 0 -178 -129 -177 -130 -176 130 -176 129 -253 0 -254 0 -2 187 -3
187 -171 126 c-95 69 -170 128 -168 132 2 3 80 62 174 130 l169 123 3 185 3
185 254 3 253 2 171 126 c94 69 176 123 184 120 7 -3 87 -59 177 -126z"/>
<path d="M1328 1897 l-27 -22 57 0 58 0 -27 23 c-32 26 -28 26 -61 -1z"/>
<path d="M1285 1844 c-45 -23 -66 -45 -86 -89 -16 -35 -26 -105 -15 -105 2 0
25 10 51 21 34 15 68 21 120 21 52 0 86 -6 120 -21 26 -11 49 -21 51 -21 2 0
4 18 4 40 0 120 -141 209 -245 154z"/>
<path d="M1122 1571 c-34 -31 -62 -59 -62 -62 0 -4 57 -28 127 -54 70 -26 136
-51 145 -56 14 -7 55 4 164 45 80 30 149 58 152 61 8 8 -103 115 -118 115 -5
0 13 -21 40 -46 28 -26 50 -50 50 -54 0 -8 -244 -100 -265 -100 -13 0 -256 89
-265 97 -3 3 20 26 50 53 30 27 53 50 50 53 -3 3 -33 -20 -68 -52z"/>
<path d="M1353 1530 c0 -30 2 -43 4 -27 2 15 2 39 0 55 -2 15 -4 2 -4 -28z"/>
<path d="M930 1410 c0 -5 -25 -28 -55 -50 -30 -22 -60 -50 -67 -63 -7 -12 -15
-73 -18 -142 l-5 -120 -32 -3 c-32 -3 -33 -5 -33 -48 l0 -44 80 0 80 0 0 138
c0 122 2 141 18 155 26 24 68 21 86 -5 13 -18 16 -51 16 -155 l0 -133 45 0 45
0 0 128 c0 147 9 175 56 180 57 6 64 -12 64 -169 l0 -139 104 0 c73 0 115 -5
142 -16 29 -12 57 -15 105 -11 l67 6 6 -41 c22 -135 118 -193 295 -178 l65 5
-40 27 c-22 15 -47 41 -57 57 -17 29 -18 29 -45 14 -18 -10 -38 -14 -54 -10
-34 9 -68 64 -68 111 0 32 3 36 25 36 23 0 25 4 25 45 0 37 -3 45 -18 45 -17
0 -19 7 -14 74 4 67 2 79 -21 119 -14 24 -50 63 -81 86 -30 23 -64 57 -77 75
l-23 33 -96 -96 c-111 -111 -126 -141 -116 -232 5 -48 3 -59 -9 -59 -12 0 -15
16 -15 85 0 46 -5 107 -11 135 -10 45 -17 55 -65 90 -29 22 -59 50 -65 62 -11
21 -12 21 -41 -11 -68 -73 -94 -75 -152 -11 -37 41 -46 47 -46 30z m670 -185
c40 -21 60 -53 60 -98 0 -93 -87 -155 -163 -116 -64 33 -89 88 -67 153 23 69
100 97 170 61z"/>
<path d="M1011 873 c-1 -32 -14 -43 -26 -23 -3 6 -26 10 -50 10 -38 0 -44 3
-39 18 4 10 -4 6 -21 -12 -22 -24 -29 -26 -36 -15 -8 12 -10 12 -18 0 -7 -11
-10 -11 -15 0 -5 11 -7 11 -12 2 -3 -7 -19 -13 -35 -13 -16 0 -29 -4 -29 -10
0 -6 53 -10 139 -10 155 0 171 6 153 57 l-10 28 -1 -32z"/>
<path d="M1043 865 c0 -22 2 -30 4 -17 2 12 2 30 0 40 -3 9 -5 -1 -4 -23z"/>
<path d="M1180 871 c0 -16 5 -33 10 -36 6 -4 10 6 10 24 0 16 -4 33 -10 36 -6
4 -10 -6 -10 -24z"/>
<path d="M1439 896 c-3 -3 -3 -21 -1 -41 l4 -35 64 -1 c35 -1 70 -2 76 -3 7
-1 14 7 16 17 4 22 -27 35 -39 16 -7 -11 -11 -10 -22 5 -14 19 -16 19 -40 3
-37 -24 -45 -21 -49 14 -2 17 -5 28 -9 25z"/>
<path d="M820 880 c-13 -8 -12 -10 3 -10 9 0 17 5 17 10 0 12 -1 12 -20 0z"/>
<path d="M1088 883 c7 -3 16 -2 19 1 4 3 -2 6 -13 5 -11 0 -14 -3 -6 -6z"/>
<path d="M1258 883 c7 -3 16 -2 19 1 4 3 -2 6 -13 5 -11 0 -14 -3 -6 -6z"/>
<path d="M1318 883 c7 -3 16 -2 19 1 4 3 -2 6 -13 5 -11 0 -14 -3 -6 -6z"/>
<path d="M1368 883 c7 -3 16 -2 19 1 4 3 -2 6 -13 5 -11 0 -14 -3 -6 -6z"/>
<path d="M1085 856 c-16 -12 -18 -17 -7 -27 15 -16 36 1 30 25 -3 15 -5 15
-23 2z"/>
<path d="M1252 854 c-12 -8 -22 -10 -22 -5 0 6 -4 11 -10 11 -5 0 -10 -14 -10
-30 0 -26 3 -29 18 -21 9 5 25 12 35 15 9 3 17 15 17 26 0 24 0 24 -28 4z"/>
<path d="M1318 859 c-32 -18 -9 -39 42 -39 46 0 83 21 65 38 -4 4 -10 1 -12
-5 -7 -19 -23 -16 -23 3 0 15 -2 15 -24 0 -21 -13 -25 -13 -28 -1 -2 10 -8 11
-20 4z"/>
<path d="M1126 844 c-9 -24 -8 -26 16 -22 26 4 34 38 8 38 -10 0 -21 -7 -24
-16z"/>
</g>
</svg>
